<?xml version="1.0" standalone="no"?>
<!DOCTYPE svg PUBLIC "-//W3C//DTD SVG 1.1//EN" "http://www.w3.org/Graphics/SVG/1.1/DTD/svg11.dtd">
<svg xmlns="http://www.w3.org/2000/svg">
<defs >
<font id="PublicSans" horiz-adv-x="1089" ><font-face
    font-family="Public Sans Thin"
    units-per-em="2000"
    panose-1="0 0 0 0 0 0 0 0 0 0"
    ascent="1900"
    descent="-450"
    alphabetic="0" />
<glyph unicode=" " horiz-adv-x="451" />
<glyph unicode="!" horiz-adv-x="564" d="M183 446L101 1446H443L366 446H183ZM112 0V312H431V0H112Z" />
<glyph unicode="&quot;" horiz-adv-x="959" d="M625 886L549 1446H847L770 886H625ZM188 886L112 1446H410L333 886H188Z" />
<glyph unicode="#" horiz-adv-x="1232" d="M796 -5L642 16L856 1449L1009 1434L796 -5ZM56 450V602H1099V450H56ZM371 -5L219 16L433 1449L584 1434L371 -5ZM120 860V1012H1163V860H120Z" />
<glyph unicode="$" horiz-adv-x="1361" d="M707 -20Q447 -20 285 84T99 407L403 413Q427 314 506 263T706 211Q778 211 833 234T921 298T953 391Q953 471 902 510T745 574L508 625Q343 658 244 756T142 1021Q141 1157 215 1256T418 1410T707 1464Q871 1464 990
1406T1174 1249T1237 1031L942 1026Q928 1122 878 1177T712 1232Q652 1232 605 1219T524 1183T473 1127T455 1055Q455 992 497 956T658 888L891 831Q1088 784 1175 670T1263 393Q1263 268 1195 175T1001 31T707 -20ZM577 -191V69H829V-191H577ZM582 1393V1653H835V1393H582Z"
/>
<glyph unicode="%" horiz-adv-x="1878" d="M345 -8L1322 1462H1491L519 -8H345ZM459 648Q355 648 272 702T141 849T93 1054Q93 1169 141 1263T273 1412T459 1468Q562 1468 644 1413T774 1263T822 1054Q822 941 775 849T646 703T459 648ZM457 796Q536 796 572 861T608
1054Q608 1185 571 1253T457 1321Q381 1321 344 1253T307 1054Q307 928 343 862T457 796ZM1408 -20Q1303 -20 1220 34T1089 180T1041 388Q1041 503 1089 597T1221 746T1408 802Q1511 802 1593 747T1724 597T1772 388Q1772 273 1725 181T1596 34T1408 -20ZM1406
130Q1484 130 1520 195T1556 386Q1556 517 1519 585T1406 653Q1330 653 1294 585T1257 386Q1257 262 1293 196T1406 130Z" />
<glyph unicode="&amp;" horiz-adv-x="1567" d="M560 -10Q401 -10 298 37T144 169T94 363Q94 462 134 538T256 679T458 808Q407 865 368 914T307 1014T285 1130Q285 1226 339 1302T489 1423T711 1468Q834 1468 934 1429T1094 1319T1154 1154Q1154 1106 1134 1058T1075
961T975 864T834 768L1060 502Q1074 533 1094 582T1132 692T1158 821H1457Q1432 732 1388 648T1293 486T1198 334L1484 0H1149L1025 142Q909 57 788 24T560 -10ZM632 213Q690 213 761 238T885 313L601 642Q521 597 466 531T421 379Q427 325 459 288T538 232T632
213ZM713 915Q785 960 825 997T882 1070T898 1141Q898 1194 874 1227T810 1276T725 1290Q654 1288 614 1248T573 1150Q573 1117 587 1083T623 1018T672 958L713 915Z" />
<glyph unicode="&apos;" horiz-adv-x="522" d="M188 886L112 1446H410L333 886H188Z" />
<glyph unicode="(" horiz-adv-x="666" d="M397 -286Q314 -146 251 -10T154 274T119 592Q119 841 197 1068T403 1482H610Q506 1287 443 1058T380 590Q380 363 437 152T602 -286H397Z" />
<glyph unicode=")" horiz-adv-x="673" d="M31 -286Q140 -60 197 151T254 590Q254 828 191 1057T24 1482H230Q358 1296 436 1069T515 592Q515 421 480 274T383 -9T236 -286H31Z" />
<glyph unicode="*" horiz-adv-x="946" d="M301 649L144 758L351 1005L57 1087L119 1257L396 1136L374 1446H565L538 1135L821 1259L875 1089L589 1006L791 764L634 654L468 928L301 649Z" />
<glyph unicode="+" horiz-adv-x="1177" d="M483 256V1201H696V256H483ZM116 621V834H1061V621H116Z" />
<glyph unicode="," horiz-adv-x="554" d="M94 -280L210 -8L108 1V284H403V35L202 -280H94Z" />
<glyph unicode="-" horiz-adv-x="786" d="M120 408V621H666V409L120 408Z" />
<glyph unicode="." horiz-adv-x="539" d="M99 0V318H419V0H99Z" />
<glyph unicode="/" horiz-adv-x="762" d="M23 -37L529 1446H732L227 -37H23Z" />
<glyph unicode="0" horiz-adv-x="1289" d="M646 -22Q383 -22 236 169T88 719Q88 959 156 1126T349 1379T646 1466Q904 1466 1053 1274T1202 720Q1202 361 1055 170T646 -22ZM646 217Q775 217 835 332T895 719Q895 996 834 1116T645 1236Q517 1236 455 1115T392
719Q392 449 454 333T646 217Z" />
<glyph unicode="1" horiz-adv-x="856" d="M344 0V1083H86V1248Q210 1248 286 1271T401 1339T446 1446H640V0H344Z" />
<glyph unicode="2" horiz-adv-x="1270" d="M113 0V144V218Q113 328 154 408T262 548T410 653T572 738T720 818T829 909T870 1027Q870 1114 810 1169T644 1224Q535 1224 459 1161T365 971H86Q88 1109 150 1221T338 1400T652 1466Q814 1466 931 1411T1113 1258T1177
1029Q1177 920 1137 841T1031 706T886 608T729 530T584 457T478 372T438 259V246H1175V0H113Z" />
<glyph unicode="3" horiz-adv-x="1330" d="M640 -22Q466 -21 344 35T156 197T88 447H369Q390 324 465 269T643 214Q733 214 797 240T896 312T931 419Q931 481 896 526T797 596T653 624L515 629V861L639 868Q717 871 775 897T865 966T898 1065Q898 1118 865 1157T774
1218T641 1240Q572 1240 514 1217T419 1142T376 1001H97Q97 1157 170 1260T369 1414T647 1466Q809 1466 935 1424T1135 1296T1208 1078Q1208 971 1146 890T944 760Q1024 738 1092 693T1201 578T1242 410Q1242 304 1195 223T1065 87T873 5T640 -22Z" />
<glyph unicode="4" horiz-adv-x="1312" d="M751 0L752 320H86V560L745 1446H1032V565H1255V320H1032V0H751ZM356 565H752V1095L356 565Z" />
<glyph unicode="5" horiz-adv-x="1350" d="M698 -22Q556 -22 434 22T223 142T88 318L316 453Q355 385 404 331T517 245T668 213Q798 213 877 282T956 462Q956 532 921 587T823 675T678 707Q634 707 595 700T515 672T425 613Q411 607 406 607T385 614L173 712L239
1446H1168L1157 1207H470L442 858Q522 903 594 923T754 943Q899 943 1013 889T1195 729T1262 473Q1262 320 1193 209T998 38T698 -22Z" />
<glyph unicode="6" horiz-adv-x="1321" d="M683 -22Q499 -22 365 67T160 317T88 695Q88 933 160 1106T369 1372T695 1466Q831 1466 946 1417T1133 1274T1213 1049H946Q920 1140 858 1187T701 1235Q597 1235 528 1176T429 1011T413 764Q446 812 497 845T611 897T742
915Q889 915 999 861T1171 706T1233 472Q1233 330 1164 219T970 43T683 -22ZM673 202Q743 202 799 234T890 325T924 458Q924 538 891 591T802 670T674 697Q612 697 555 670T461 600T424 513Q423 416 454 347T542 240T673 202Z" />
<glyph unicode="7" horiz-adv-x="1252" d="M349 0Q357 88 389 222T482 520T637 860T861 1207H86V1446H1166V1207Q1097 1121 1028 1004T895 754T780 485T698 224T664 0H349Z" />
<glyph unicode="8" horiz-adv-x="1342" d="M670 -21Q496 -21 365 30T161 177T88 401Q88 484 129 558T233 684T363 750Q274 792 212 870T150 1059Q150 1191 218 1281T405 1419T670 1466Q819 1466 936 1419T1122 1282T1190 1059Q1190 948 1129 870T979 750Q1045
736 1108 685T1213 559T1254 401Q1254 272 1182 177T978 31T670 -21ZM670 199Q798 199 870 256T943 409Q943 473 910 521T816 598T670 626Q587 626 526 598T432 522T399 409Q399 314 472 257T670 199ZM670 863Q770 863 834 916T899 1065Q899 1159 834 1214T670
1269Q572 1269 507 1214T442 1065Q442 970 507 917T670 863Z" />
<glyph unicode="9" horiz-adv-x="1318" d="M619 -22Q484 -22 367 30T176 176T93 398H371Q389 314 451 262T607 209Q711 209 789 258T907 414T935 694Q907 641 858 602T742 541T595 519Q448 519 335 574T157 732T92 976Q92 1118 160 1229T350 1403T636 1466Q820
1466 953 1379T1158 1131T1230 753Q1230 494 1157 322T946 64T619 -22ZM645 751Q706 751 763 778T858 848T895 935Q896 1032 865 1101T777 1208T645 1245Q576 1245 522 1213T437 1123T406 989Q406 876 472 814T645 751Z" />
<glyph unicode=":" horiz-adv-x="539" d="M99 696V1009H419V696H99ZM99 6V318H419V6H99Z" />
<glyph unicode=";" horiz-adv-x="557" d="M99 -309L230 0H117V314H437V36L218 -309H99ZM114 687V1005H434V687H114Z" />
<glyph unicode="&lt;" horiz-adv-x="1155" d="M1038 208L116 565V807L1038 1167V916L437 684L1038 459V208Z" />
<glyph unicode="=" horiz-adv-x="1177" d="M116 811V1024L1061 1025V812L116 811ZM116 354V567H1061V354H116Z" />
<glyph unicode="&gt;" horiz-adv-x="1155" d="M117 208V459L719 684L116 916V1167L1039 807V565L117 208Z" />
<glyph unicode="?" horiz-adv-x="1069" d="M386 452Q386 562 419 642T502 783T601 895T683 997T717 1111Q717 1182 664 1224T529 1266Q475 1266 424 1243T333 1177T270 1078L22 1138Q86 1296 217 1381T531 1466Q674 1466 781 1420T947 1297T1007 1126Q1007 1028
968 959T871 836T757 728T660 609T621 452H386ZM343 0V312H663V0H343Z" />
<glyph unicode="@" horiz-adv-x="1655" d="M838 -220Q659 -220 518 -163T278 -6T128 227T76 509Q76 667 131 807T292 1056T544 1226T876 1288Q1008 1288 1133 1252T1359 1140T1519 946T1579 661Q1579 513 1531 400T1395 222T1195 158Q1110 158 1067 187T1007 251Q1000
263 996 263T982 251Q939 199 873 165T722 130Q639 130 572 172T466 293T427 475Q427 595 475 698T612 863T821 926Q903 926 951 897T1033 826Q1037 821 1042 822T1048 833L1059 876H1227L1155 446Q1143 375 1161 349T1215 323Q1262 323 1305 359T1375 468T1403
649Q1403 784 1359 875T1239 1022T1070 1103T876 1128Q716 1128 599 1079T407 945T294 748T256 512Q256 377 298 270T419 86T613 -29T870 -69Q960 -69 1022 -53T1134 -10T1232 50L1321 -69Q1245 -130 1120 -175T838 -220ZM773 307Q830 307 876 340T950 427T983
541Q988 603 970 650T917 724T836 751Q779 751 734 717T661 624T634 495Q634 417 668 362T773 307Z" />
<glyph unicode="A" horiz-adv-x="1453" d="M55 0L572 1446H881L1398 0H1107L989 335H468L348 0H55ZM534 590H918L727 1165L534 590Z" />
<glyph unicode="B" horiz-adv-x="1369" d="M162 0V1446H686Q970 1446 1107 1349T1245 1067Q1245 959 1190 880T994 741Q1085 718 1141 679T1227 593T1268 494T1279 392Q1279 192 1143 96T710 0H162ZM453 226H716Q848 226 915 279T983 421Q983 485 950 528T861
594T732 616H453V226ZM453 848H732Q777 848 818 858T892 891T944 947T963 1029Q963 1123 893 1171T712 1220H453V848Z" />
<glyph unicode="C" horiz-adv-x="1436" d="M751 -20Q549 -20 402 74T176 338T96 735Q96 963 175 1126T401 1378T751 1466Q914 1466 1041 1401T1247 1222T1340 967H1034Q1020 1042 983 1100T886 1192T742 1226Q641 1226 568 1177T456 1019T417 731Q417 461 503
341T742 220Q826 220 886 258T983 360T1034 500H1340Q1327 397 1290 304T1185 137T1010 22T751 -20Z" />
<glyph unicode="D" horiz-adv-x="1440" d="M162 0V1446Q173 1446 223 1446T342 1446T479 1446T594 1444Q857 1438 1023 1350T1266 1104T1344 730Q1344 505 1262 342T1012 89T584 0H162ZM456 236H590Q714 236 815 284T978 441T1039 732Q1039 901 985 1006T831 1161T594
1210H456V236Z" />
<glyph unicode="E" horiz-adv-x="1269" d="M162 0V1446H1155L1154 1200H455V849H1062V608H453V249L1165 248V0H162Z" />
<glyph unicode="F" horiz-adv-x="1227" d="M162 0V1446H1146L1145 1202H456V839H1053V600H456V0H162Z" />
<glyph unicode="G" horiz-adv-x="1518" d="M747 -20Q548 -20 402 70T176 327T96 719Q96 949 179 1116T413 1375T763 1466Q892 1466 998 1425T1182 1313T1305 1153T1354 967H1046Q1033 1036 995 1093T896 1184T756 1219Q660 1219 582 1170T459 1012T414 727Q414
584 443 489T523 339T637 260T768 237Q832 237 882 258T969 314T1026 388T1053 468L1064 556H765V758L1370 755V0H1171V189Q1134 140 1080 92T945 12T747 -20Z" />
<glyph unicode="H" horiz-adv-x="1540" d="M162 0V1446H453V866H1086V1446H1378V0H1086V621H453V0H162Z" />
<glyph unicode="I" horiz-adv-x="615" d="M162 0V1446H453V0H162Z" />
<glyph unicode="J" horiz-adv-x="804" d="M304 -20Q235 -20 162 -9T55 12L61 279Q90 273 127 263T211 253Q312 253 347 306T382 480V1446H674V402Q674 264 644 170T534 28T304 -20Z" />
<glyph unicode="K" horiz-adv-x="1434" d="M162 0V1446H465V784L992 1446H1327L888 886L1380 0H1062L679 673L465 415V0H162Z" />
<glyph unicode="L" horiz-adv-x="1155" d="M162 0V1446H456V247H1084V0H162Z" />
<glyph unicode="M" horiz-adv-x="1835" d="M162 0V1446H586L917 415L1251 1446H1674V0H1379V1106L1031 0H802L456 1101V0H162Z" />
<glyph unicode="N" horiz-adv-x="1564" d="M162 0V1446H451L1111 489V1446H1403V0H1140L453 995V0H162Z" />
<glyph unicode="O" horiz-adv-x="1521" d="M763 -20Q558 -20 409 69T178 324T96 720Q96 951 178 1118T411 1375T763 1466Q964 1466 1113 1376T1343 1119T1425 720Q1425 491 1345 325T1115 70T763 -20ZM763 220Q869 220 946 270T1066 430T1108 716Q1108 897 1066
1009T946 1173T763 1226Q658 1226 580 1174T459 1009T416 716Q416 539 459 430T580 271T763 220Z" />
<glyph unicode="P" horiz-adv-x="1305" d="M162 0V1446H694Q852 1446 977 1392T1174 1231T1247 972Q1247 828 1183 726T1004 570T732 516H456V0H162ZM453 742H724Q834 742 904 812T974 987Q974 1095 900 1158T720 1222H453V742Z" />
<glyph unicode="Q" horiz-adv-x="1546" d="M1421 -246Q1327 -246 1243 -230T1080 -163T927 -6Q877 -13 840 -16T762 -20Q559 -20 410 68T178 322T96 720Q96 952 178 1119T410 1376T762 1466Q965 1466 1114 1376T1345 1119T1427 720Q1427 522 1368 372T1186 121Q1210
61 1275 25T1421 -12V-246ZM762 220Q926 220 1017 335T1108 717Q1108 986 1017 1106T762 1226Q599 1226 508 1106T417 716Q417 451 508 336T762 220Z" />
<glyph unicode="R" horiz-adv-x="1392" d="M162 0V1446H772Q945 1446 1055 1391T1217 1239T1269 1014Q1269 900 1234 822T1141 691T1015 606L1284 0H981L746 557H453V0H162ZM453 782H720Q837 782 905 845T974 1007Q974 1107 908 1165T741 1223H453V782Z" />
<glyph unicode="S" horiz-adv-x="1384" d="M704 -20Q596 -20 493 7T305 88T166 223T100 413H399Q414 347 456 302T566 233T721 209Q790 209 852 229T953 290T992 393Q992 467 938 504T791 564L520 623Q405 647 320 697T188 829T142 1028Q142 1163 216 1261T419
1411T708 1464Q889 1464 1013 1406T1204 1248T1271 1026H979Q971 1101 933 1146T836 1212T700 1233Q569 1233 509 1180T449 1057Q449 991 494 951T641 889L892 835Q1032 808 1119 750T1246 608T1286 422Q1286 291 1212 192T1006 36T704 -20Z" />
<glyph unicode="T" horiz-adv-x="1232" d="M475 0V1186H38V1446H1195V1186H768V0H475Z" />
<glyph unicode="U" horiz-adv-x="1448" d="M740 -20Q529 -20 402 50T219 251T162 561V1446H459V539Q459 377 537 303T740 228Q823 228 887 260T987 361T1024 539V1446H1319V551Q1319 376 1262 248T1078 50T740 -20Z" />
<glyph unicode="V" horiz-adv-x="1407" d="M538 0L38 1446H317L704 339L1089 1446H1369L869 0H538Z" />
<glyph unicode="W" horiz-adv-x="1937" d="M464 0L38 1446H324L593 491L862 1446H1073L1345 491L1614 1446H1899L1472 0H1239L967 945L693 0H464Z" />
<glyph unicode="X" horiz-adv-x="1434" d="M55 0L536 734L70 1446H431L720 978L1006 1446H1316L870 772L1379 0H1015L689 522L369 0H55Z" />
<glyph unicode="Y" horiz-adv-x="1335" d="M521 0V609L19 1446H335L668 860L997 1446H1316L813 608V0H521Z" />
<glyph unicode="Z" horiz-adv-x="1339" d="M108 0V142L842 1202H157V1446H1258V1310L514 247H1250V0H108Z" />
<glyph unicode="[" horiz-adv-x="674" d="M149 -322L148 1446H607V1281H388V-156H606V-322H149Z" />
<glyph unicode="\" horiz-adv-x="762" d="M528 -37L23 1446H227L732 -37H528Z" />
<glyph unicode="]" horiz-adv-x="674" d="M68 -322V-156H287L286 1281H68V1446H526L525 -322H68Z" />
<glyph unicode="^" horiz-adv-x="968" d="M681 245L474 756L266 246H69L380 982Q399 1027 436 1043T510 1046T569 983L879 245H681Z" />
<glyph unicode="_" horiz-adv-x="1106" d="M116 -276V-65L983 -64V-276H116Z" />
<glyph unicode="`" horiz-adv-x="528" d="M307 1155L11 1446H312L518 1155H307Z" />
<glyph unicode="a" horiz-adv-x="1133" d="M432 -20Q334 -20 255 17T129 124T83 296Q83 466 210 554T611 646L741 648V710Q741 781 700 819T570 857Q507 856 450 827T370 726H127Q133 838 192 910T353 1018T584 1054Q742 1054 838 1015T977 902T1021 727V0H777L753
178Q700 66 621 23T432 -20ZM531 172Q570 172 607 186T675 225T722 281T741 345V498L636 496Q563 495 500 479T399 425T360 325Q360 253 409 213T531 172Z" />
<glyph unicode="b" horiz-adv-x="1217" d="M701 -20Q624 -20 568 0T473 53T409 128T370 212L337 0H125V1486H418V894Q437 927 467 956T537 1007T625 1041T729 1054Q922 1054 1031 915T1141 523Q1141 359 1091 237T943 48T701 -20ZM637 190Q731 190 793 267T856
527Q856 688 797 765T635 842Q562 842 514 808T443 703T418 527Q418 344 472 267T637 190Z" />
<glyph unicode="c" horiz-adv-x="1094" d="M575 -20Q431 -20 318 44T141 227T76 513Q76 673 138 795T312 985T575 1054Q705 1054 799 1001T948 858T1011 657H768Q761 698 739 738T677 805T577 832Q475 832 412 754T348 515Q348 364 410 276T583 187Q642 187 681
216T743 285T771 361H1008Q1001 254 946 168T797 31T575 -20Z" />
<glyph unicode="d" horiz-adv-x="1217" d="M516 -20Q308 -20 192 123T76 523Q76 685 123 804T262 988T487 1054Q543 1054 591 1042T680 1007T750 956T799 894V1486H1092V0H880L847 212Q832 169 808 128T744 54T649 0T516 -20ZM580 190Q690 190 744 267T799 527Q798
633 774 703T703 807T582 842Q487 842 424 770T361 527Q361 354 420 272T580 190Z" />
<glyph unicode="e" horiz-adv-x="1153" d="M600 -20Q446 -20 330 44T148 227T83 505Q83 660 142 784T314 981T585 1054Q743 1054 850 988T1012 803T1067 529V450H372Q372 371 398 313T473 223T593 191Q668 191 724 223T803 328H1066Q1048 218 978 140T808 21T600
-20ZM372 624H794Q794 686 771 738T701 820T584 850Q517 850 470 818T397 733T372 624Z" />
<glyph unicode="f" horiz-adv-x="793" d="M241 0V831H50V1034H241V1183Q241 1308 315 1377T523 1446H760L762 1252H625Q570 1252 549 1225T528 1134V1034H752V831H534V0H241Z" />
<glyph unicode="g" horiz-adv-x="1257" d="M605 -342Q329 -342 186 -272T42 -88Q42 -35 69 1T134 58T203 91T243 107Q227 116 197 133T141 181T116 261Q116 316 168 363T328 428Q226 476 173 558T119 726Q119 828 183 901T358 1012T609 1050Q715 1050 783 1028T910
969Q933 978 970 992T1052 1024T1139 1059T1214 1091L1212 865L1034 836Q1044 809 1050 778T1056 727Q1056 637 1004 559T847 433T588 385Q570 385 538 386T486 389Q428 386 406 374T383 346Q383 322 428 315T564 301Q597 299 654 296T779 288Q969 275 1062 195T1156
-8Q1156 -153 1019 -247T605 -342ZM652 -179Q773 -179 825 -149T878 -63Q878 -16 838 13T721 48L484 64Q437 66 402 50T348 6T328 -54Q328 -119 407 -149T652 -179ZM597 548Q680 548 730 593T780 717Q780 798 730 847T597 896Q514 896 463 847T412 717Q412 640
461 594T597 548Z" />
<glyph unicode="h" horiz-adv-x="1185" d="M125 0V1486H415V885Q440 921 478 956T573 1016T712 1040Q811 1040 892 1002T1023 890T1073 712V0H780V669Q780 739 730 776T607 814Q560 814 516 797T445 746T417 660V0H125Z" />
<glyph unicode="i" horiz-adv-x="534" d="M128 0V1034H407V0H128ZM125 1182V1445H409V1182H125Z" />
<glyph unicode="j" horiz-adv-x="577" d="M101 -332Q20 -332 -5 -318T-31 -303L-32 -108L48 -100Q110 -92 134 -66T158 10V1034H449V7Q449 -162 367 -247T101 -332ZM154 1182V1445H452V1182H154Z" />
<glyph unicode="k" horiz-adv-x="1159" d="M125 0V1486H417V605L797 1034H1111L735 622L1124 0H833L554 446L417 300V0H125Z" />
<glyph unicode="l" horiz-adv-x="658" d="M455 -18Q341 -18 274 9T175 80T134 179T125 290V1486H411V326Q411 269 435 234T528 190L577 187V7Q547 -3 516 -10T455 -18Z" />
<glyph unicode="m" horiz-adv-x="1791" d="M125 0V1034H411V888Q458 956 537 1005T738 1054Q791 1054 846 1035T949 980T1028 888Q1078 959 1159 1006T1341 1054Q1399 1054 1458 1035T1568 973T1648 859T1679 682V0H1387V646Q1387 708 1363 745T1301 799T1221
816Q1182 816 1142 801T1074 751T1046 662V0H755V672Q755 719 730 751T668 799T591 816Q551 816 511 800T444 749T417 662V0H125Z" />
<glyph unicode="n" horiz-adv-x="1186" d="M125 0V1034H412V888Q436 926 474 961T572 1020T712 1043Q807 1043 889 1006T1023 890T1074 682V0H782V646Q782 730 732 772T610 814Q562 814 518 797T445 746T417 662V0H125Z" />
<glyph unicode="o" horiz-adv-x="1151" d="M576 -20Q424 -20 312 45T138 229T76 511Q76 674 137 796T311 986T577 1054Q730 1054 842 988T1015 799T1076 511Q1076 355 1017 236T846 48T576 -20ZM577 197Q654 197 701 242T769 360T790 521Q790 603 771 676T705
794T577 839Q500 839 453 797T383 682T361 521Q361 440 381 366T448 244T577 197Z" />
<glyph unicode="p" horiz-adv-x="1214" d="M125 -322V1034H418L419 885Q442 922 475 952T550 1006T639 1041T740 1054Q855 1054 945 998T1086 824T1138 525Q1138 337 1083 217T930 38T711 -20Q661 -20 617 -7T536 31T469 86T417 155V-322H125ZM641 194Q736 194
800 273T865 523Q865 673 804 757T641 842Q528 842 473 751T417 523Q417 436 441 361T515 240T641 194Z" />
<glyph unicode="q" horiz-adv-x="1214" d="M797 -322V155Q776 118 746 87T679 31T597 -6T503 -20Q386 -20 289 35T134 210T76 525Q76 700 125 817T264 994T474 1054Q527 1054 575 1042T664 1006T738 953T795 885L797 1034H1089V-322H797ZM573 194Q649 194 699
240T773 361T798 523Q798 659 743 750T573 842Q479 842 414 762T349 523Q349 360 411 277T573 194Z" />
<glyph unicode="r" horiz-adv-x="824" d="M125 0V1034H406V789Q431 868 476 927T587 1020T734 1054Q748 1054 760 1053T779 1048V770Q770 774 758 775T735 777Q649 784 588 772T489 731T434 660T417 566V0H125Z" />
<glyph unicode="s" horiz-adv-x="1054" d="M541 -20Q433 -20 334 15T165 127T77 326H329Q343 271 377 239T456 194T540 180Q624 180 675 206T727 288Q727 330 697 355T596 393L414 431Q277 460 194 529T109 727Q108 820 157 894T304 1011T543 1054Q734 1054 848
970T965 733H721Q710 793 662 825T539 858Q464 858 415 831T366 749Q366 708 406 685T530 644L698 606Q785 585 839 549T924 469T965 383T977 304Q977 201 922 129T769 18T541 -20Z" />
<glyph unicode="t" horiz-adv-x="833" d="M571 -11Q434 -11 360 24T257 122T228 268V831H60V1034H237L311 1346H519V1035H749V831H519L521 280Q521 242 530 224T560 200T613 194H752V14Q731 5 689 -3T571 -11Z" />
<glyph unicode="u" horiz-adv-x="1190" d="M506 -20Q434 -20 365 2T238 67T147 173T112 319V1034H404V356Q404 284 451 238T589 192Q675 192 725 236T776 361V1034H1065V0H845L811 205Q793 114 744 66T631 -1T506 -20Z" />
<glyph unicode="v" horiz-adv-x="1041" d="M415 0L27 1034H291L517 375H525L748 1034H1015L627 0H415Z" />
<glyph unicode="w" horiz-adv-x="1577" d="M365 0L30 1034H288L486 393H493L683 1034H892L1084 393H1092L1284 1034H1548L1208 0H975L783 626L590 0H365Z" />
<glyph unicode="x" horiz-adv-x="1176" d="M35 0L432 539L69 1034H375L590 744L804 1034H1109L743 539L1141 0H835L588 337L341 0H35Z" />
<glyph unicode="y" horiz-adv-x="1126" d="M287 -330Q181 -330 137 -313T93 -295V-109L196 -113Q263 -117 304 -107T366 -79T396 -44T410 -14L429 43L27 1034H316L564 360L814 1034H1100L681 -6Q627 -138 567 -208T437 -304T287 -330Z" />
<glyph unicode="z" horiz-adv-x="993" d="M63 0V163L573 830H89V1034H927V871L416 204H930V0H63Z" />
<glyph unicode="{" horiz-adv-x="769" d="M561 -322Q482 -322 411 -295T295 -215T250 -83V324Q250 371 227 410T153 473T24 497V644Q144 645 197 691T250 825V1210Q250 1288 295 1340T410 1419T556 1446H701V1281H614Q557 1281 531 1267T497 1230T490 1177V781Q488
711 456 668T375 603T280 577Q268 576 268 571T280 564Q326 560 374 541T455 476T490 349V-51Q490 -106 516 -131T614 -156H701V-322H561Z" />
<glyph unicode="|" horiz-adv-x="537" d="M162 -322V1652H375V-322H162Z" />
<glyph unicode="}" horiz-adv-x="768" d="M29 -322V-156H116Q188 -156 214 -131T240 -51V349Q242 431 275 476T356 540T451 564Q465 566 464 571T451 577Q403 582 356 603T275 667T240 781V1177Q240 1206 233 1229T200 1267T116 1281H29V1446H174Q250 1446 320
1420T435 1341T480 1210V825Q480 738 533 692T706 644V497Q627 497 578 473T504 410T480 324V-83Q480 -162 436 -215T320 -295T169 -322H29Z" />
<glyph unicode="~" horiz-adv-x="1224" d="M196 555L113 702Q187 778 259 829T429 881Q491 881 538 862T627 820T710 777T799 758Q871 758 924 800T1012 900L1097 755Q1047 667 969 621T804 574Q744 574 696 592T606 635T521 678T427 697Q351 697 297 653T196 555Z" />
<glyph unicode="&#xa0;" horiz-adv-x="451" />
<glyph unicode="&#xa1;" horiz-adv-x="565" d="M101 -322L183 586H365L444 -322H101ZM112 722V1034H431V722H112Z" />
<glyph unicode="&#xa2;" horiz-adv-x="1122" d="M603 202Q459 202 346 266T168 449T103 735Q103 895 165 1017T339 1207T603 1276Q732 1276 827 1223T976 1080T1038 879H795Q789 920 767 960T705 1027T605 1054Q502 1054 439 976T375 737Q375 586 437 498T610
409Q669 409 709 438T770 507T798 583H1035Q1029 476 974 390T824 253T603 202ZM504 0V336H697V0H504ZM504 1110V1446H697V1110H504Z" />
<glyph unicode="&#xa3;" horiz-adv-x="1296" d="M41 0V242H109Q184 242 232 290T280 448Q280 496 275 545T259 677H55V839H226L206 1020Q192 1128 223 1211T319 1351T472 1437T657 1466Q765 1466 857 1432T1017 1334T1124 1179L870 1101Q838 1171 801 1202T701
1234Q654 1234 617 1214T559 1156T538 1065Q538 1023 546 968T570 840H863V678H593Q599 610 599 564T588 467Q581 410 565 370T525 301T472 244H741Q838 244 886 280T967 404L1214 350Q1166 176 1054 88T763 0H41Z" />
<glyph unicode="&#xa4;" horiz-adv-x="1156" d="M197 234L75 360L207 490Q172 546 155 601T137 727Q137 850 197 947Q206 965 194 978L76 1096L198 1223L332 1088Q384 1122 445 1141T567 1161Q692 1161 797 1096Q810 1088 820 1098L931 1210L1053 1085L931 964Q965
911 984 852T1003 728Q1003 668 987 609T937 501Q931 491 937 485L1054 372L932 247L811 368Q757 333 698 314T574 294Q449 294 347 356Q330 367 316 353L197 234ZM571 487Q640 487 694 520T780 609T811 728Q811 791 780 846T695 935T571 969Q502 969 448 935T362
846T330 728Q330 664 361 609T447 521T571 487Z" />
<glyph unicode="&#xa5;" horiz-adv-x="1318" d="M499 0V603L-11 1446H367L696 867L1022 1446H1329L831 638V0H499ZM201 224V382L1130 383V225L201 224ZM201 537V696L1130 697V537H201Z" />
<glyph unicode="&#xa6;" horiz-adv-x="537" d="M162 837V1652H375V837H162ZM162 -322V494H375V-322H162Z" />
<glyph unicode="&#xa7;" horiz-adv-x="1025" d="M515 -155Q401 -155 309 -123T151 -38T56 77L235 167Q277 111 342 67T510 23Q589 23 639 50T690 132Q690 172 657 205T533 274L380 331Q221 391 149 464T77 651Q77 743 125 809T253 913Q191 950 156 988T106 1069T91
1158Q91 1245 139 1314T278 1425T494 1466Q597 1466 681 1435T824 1354T914 1246L734 1158Q691 1207 636 1247T503 1288Q432 1288 392 1260T351 1185Q351 1150 382 1123T463 1076L619 1016Q786 952 861 876T937 683Q937 589 892 527T774 423Q866 372 907 312T949
169Q949 74 899 1T752 -113T515 -155ZM568 515Q609 511 639 528T685 575T698 643Q693 687 661 721T545 786L456 821Q411 817 379 799T330 752T313 693Q313 650 343 622T469 555L568 515Z" />
<glyph unicode="&#xa8;" horiz-adv-x="762" d="M476 1208L479 1446H752L750 1208H476ZM10 1208L13 1446H286L284 1208H10Z" />
<glyph unicode="&#xa9;" horiz-adv-x="1661" d="M823 -20Q669 -20 535 37T298 197T139 434T81 724Q81 877 138 1011T298 1248T534 1408T823 1466Q977 1466 1111 1408T1348 1248T1509 1012T1567 724Q1567 569 1509 434T1349 197T1112 38T823 -20ZM829 313Q712 313
623 365T482 510T430 725Q430 849 482 943T624 1089T829 1142Q926 1142 997 1103T1113 1005T1178 883L975 860Q957 909 927 949T836 989Q760 989 713 924T665 729Q665 595 715 531T848 466Q918 466 960 505T1032 605L1178 568Q1166 532 1140 488T1071 404T968 339T829
313ZM823 143Q945 143 1048 183T1228 300T1347 483T1389 724Q1389 856 1347 962T1229 1146T1049 1264T823 1306Q699 1306 596 1265T417 1146T300 963T258 724Q258 591 299 484T416 300T595 184T823 143Z" />
<glyph unicode="&#xaa;" horiz-adv-x="813" d="M297 794Q194 794 139 844T83 978Q83 1075 173 1135T423 1201L500 1205V1248Q500 1305 467 1324T395 1343Q355 1343 321 1326T262 1259L99 1295Q136 1378 204 1421T402 1464Q556 1463 618 1408T681 1257Q681 1174
681 1120T681 1006Q681 995 681 969T683 913T688 865L702 806H515L500 876Q447 835 403 815T297 794ZM369 913Q428 913 468 948Q483 962 491 975T500 1006V1103L436 1100Q358 1097 314 1068T269 989Q269 955 295 934T369 913Z" />
<glyph unicode="&#xab;" horiz-adv-x="999" d="M719 129L481 502L718 891H874L711 502L873 129H719ZM338 129L101 502L337 891H493L330 502L492 129H338Z" />
<glyph unicode="&#xac;" horiz-adv-x="1177" d="M116 621V834H1061V621H116ZM824 319L823 761H1061V319H824Z" />
<glyph unicode="&#xad;" horiz-adv-x="786" d="M120 408V621H666V409L120 408Z" />
<glyph unicode="&#xae;" horiz-adv-x="1105" d="M547 536Q417 536 312 598T144 765T81 1000Q81 1129 143 1235T311 1403T547 1466Q675 1466 780 1404T948 1235T1011 1000Q1011 871 949 766T781 598T547 536ZM547 652Q648 652 724 695T842 816T884 1000Q884 1106
842 1184T724 1306T547 1350Q443 1350 367 1307T249 1185T207 1000Q207 894 249 816T367 695T547 652ZM359 767V1228H575Q658 1228 704 1197T751 1105Q751 1057 724 1027T658 981L749 767H623L553 969H473V767H359ZM473 1050H570Q596 1050 614 1062T632 1098Q632
1121 615 1134T564 1148H473V1050Z" />
<glyph unicode="&#xaf;" horiz-adv-x="786" d="M35 1205V1392H738V1205H35Z" />
<glyph unicode="&#xb0;" horiz-adv-x="948" d="M467 1001Q370 1001 295 1044T176 1162T133 1336Q133 1434 176 1510T294 1629T467 1673Q563 1673 638 1630T758 1510T802 1336Q802 1238 758 1163T639 1044T467 1001ZM465 1165Q539 1165 582 1212T626 1334Q626 1408
583 1455T463 1502Q390 1502 346 1455T303 1334Q305 1260 348 1213T465 1165Z" />
<glyph unicode="&#xb1;" horiz-adv-x="1177" d="M116 71V283H1061V72L116 71ZM696 1004L1061 1005V792L696 791V427H483V791H116V1004H483V1371H696V1004Z" />
<glyph unicode="&#xb2;" horiz-adv-x="784" d="M59 747V839V885Q59 966 93 1022T181 1117T296 1187T411 1246T499 1309T534 1393Q534 1447 496 1481T394 1515Q328 1515 280 1476T221 1356H42Q42 1444 82 1514T201 1627T399 1669Q552 1669 640 1594T729 1394Q729
1314 696 1260T610 1168T498 1104T386 1050T300 992T266 912V905H728V747H59Z" />
<glyph unicode="&#xb3;" horiz-adv-x="850" d="M409 736Q244 737 154 816T62 1032H241Q254 955 301 921T411 887Q495 887 542 922T590 1013Q590 1068 544 1103T417 1140L330 1143V1292L409 1296Q457 1298 493 1314T549 1356T569 1418Q569 1467 525 1496T411 1525Q368
1525 332 1511T272 1464T246 1376H67Q67 1473 112 1538T237 1637T414 1670Q516 1670 595 1644T721 1564T767 1426Q767 1359 729 1308T604 1227Q678 1206 733 1153T788 1007Q788 917 737 857T600 766T409 736Z" />
<glyph unicode="&#xb4;" horiz-adv-x="528" d="M10 1155L216 1446H517L220 1155H10Z" />
<glyph unicode="&#xb5;" horiz-adv-x="1208" d="M112 -330V1060H411V401Q411 360 432 328T491 278T577 260Q643 260 695 297T780 399V1060H1083L1078 0H786V164Q734 112 687 84T586 47Q541 41 497 45T411 70V-330H112Z" />
<glyph unicode="&#xb6;" horiz-adv-x="1198" d="M486 -166V598Q373 606 280 657T131 798T76 1017Q76 1134 129 1231T286 1387T541 1446H1086V1281H961V-166H782V1281H666V-166H486Z" />
<glyph unicode="&#xb7;" horiz-adv-x="518" d="M99 585V872H398V585H99Z" />
<glyph unicode="&#xb8;" horiz-adv-x="546" d="M260 -425Q197 -425 139 -413T30 -371L70 -273Q101 -292 140 -307T224 -322Q272 -322 298 -306T324 -260Q324 -221 286 -200T154 -178Q142 -178 138 -175T138 -159L211 10H341L296 -107Q372 -109 416 -133T479 -192T499
-263Q499 -314 466 -350T379 -406T260 -425Z" />
<glyph unicode="&#xb9;" horiz-adv-x="513" d="M204 744V1423H42V1529Q158 1529 209 1561T268 1654H394V744H204Z" />
<glyph unicode="&#xba;" horiz-adv-x="806" d="M403 795Q304 795 230 837T116 955T76 1127Q76 1228 118 1304T234 1422T403 1465Q502 1465 575 1422T690 1303T731 1127Q731 1030 690 955T576 838T403 795ZM403 923Q471 923 504 976T537 1132Q537 1235 504 1287T403
1340Q336 1340 303 1288T270 1132Q270 1029 303 976T403 923Z" />
<glyph unicode="&#xbb;" horiz-adv-x="1022" d="M502 129L666 502L501 891H658L894 502L658 129H502ZM123 129L285 502L122 891H277L513 502L277 129H123Z" />
<glyph unicode="&#xbc;" horiz-adv-x="1662" d="M204 536V1215H42V1321Q158 1321 209 1353T268 1446H394V536H204ZM399 -8L226 -5L1201 1462H1371L399 -8ZM1300 2L1301 203H884V355L1297 912H1480V359H1620V203H1480V2H1300ZM1057 359H1301V685L1057 359Z" />
<glyph unicode="&#xbd;" horiz-adv-x="1803" d="M204 536V1215H42V1321Q158 1321 209 1353T268 1446H394V536H204ZM399 -8L226 -5L1201 1462H1371L399 -8ZM1078 -1V91V137Q1078 218 1112 274T1200 369T1315 439T1430 498T1518 561T1553 645Q1553 699 1515 733T1413
767Q1347 767 1299 728T1240 608H1061Q1061 696 1101 766T1220 879T1418 921Q1571 921 1659 846T1748 646Q1748 566 1715 512T1629 420T1517 356T1405 302T1319 244T1285 164V157H1747V-1H1078Z" />
<glyph unicode="&#xbe;" horiz-adv-x="1919" d="M409 526Q244 527 154 606T62 822H241Q254 745 301 711T411 677Q495 677 542 712T590 803Q590 858 544 893T417 930L330 933V1082L409 1086Q457 1088 493 1104T549 1146T569 1208Q569 1257 525 1286T411 1315Q368
1315 332 1301T272 1254T246 1166H67Q67 1263 112 1328T237 1427T414 1460Q516 1460 595 1434T721 1354T767 1216Q767 1149 729 1098T604 1017Q678 996 733 943T788 797Q788 707 737 647T600 556T409 526ZM655 -8L482 -5L1457 1462H1627L655 -8ZM1557 2L1558 203H1141V355L1554
912H1737V359H1877V203H1737V2H1557ZM1314 359H1558V685L1314 359Z" />
<glyph unicode="&#xbf;" horiz-adv-x="1087" d="M542 -342Q385 -342 279 -296T120 -173T67 0Q67 82 95 138T166 238T259 317T352 392T423 479T451 595H687Q687 512 664 450T602 341T522 256T442 182T380 106T356 15Q356 -51 410 -93T545 -135Q599 -135 650 -112T741
-48T803 47L1052 -12Q988 -170 857 -256T542 -342ZM411 722V1034H731V722H411Z" />
<glyph unicode="&#xc0;" horiz-adv-x="1453" d="M55 0L572 1446H881L1398 0H1107L989 335H468L348 0H55ZM534 590H918L727 1165L534 590ZM619 1567L323 1858H624L830 1567H619Z" />
<glyph unicode="&#xc1;" horiz-adv-x="1453" d="M55 0L572 1446H881L1398 0H1107L989 335H468L348 0H55ZM534 590H918L727 1165L534 590ZM618 1567L824 1858H1125L828 1567H618Z" />
<glyph unicode="&#xc2;" horiz-adv-x="1453" d="M55 0L572 1446H881L1398 0H1107L989 335H468L348 0H55ZM534 590H918L727 1165L534 590ZM361 1567L625 1826H827L1084 1567H856L724 1707L578 1567H361Z" />
<glyph unicode="&#xc3;" horiz-adv-x="1453" d="M55 0L572 1446H881L1398 0H1107L989 335H468L348 0H55ZM534 590H918L727 1165L534 590ZM432 1603L387 1756Q423 1793 467 1820T579 1847Q635 1847 685 1832T782 1802T874 1786Q927 1786 968 1808T1041 1855L1077
1682Q1046 1657 994 1635T875 1612Q819 1612 774 1626T684 1653T589 1667Q538 1667 505 1652T432 1603Z" />
<glyph unicode="&#xc4;" horiz-adv-x="1453" d="M55 0L572 1446H881L1398 0H1107L989 335H468L348 0H55ZM534 590H918L727 1165L534 590ZM822 1620L825 1858H1098L1096 1620H822ZM356 1620L359 1858H632L630 1620H356Z" />
<glyph unicode="&#xc5;" horiz-adv-x="1453" d="M55 0L572 1446H881L1398 0H1107L989 335H468L348 0H55ZM534 590H918L727 1165L534 590ZM727 1547Q636 1547 573 1611T510 1768Q510 1856 574 1917T727 1978Q787 1978 836 1950T915 1873T945 1764Q945 1673 882
1610T727 1547ZM725 1661Q767 1661 795 1692T824 1763Q824 1806 796 1834T725 1862Q684 1862 654 1834T623 1763Q623 1723 653 1692T725 1661Z" />
<glyph unicode="&#xc6;" horiz-adv-x="2080" d="M0 0L774 1446H1955L1954 1203H1269V848H1862V608H1269V244H1976V0H937V338H471L293 0H0ZM581 590H937V1255L581 590Z" />
<glyph unicode="&#xc7;" horiz-adv-x="1436" d="M744 -425Q681 -425 623 -413T514 -371L554 -273Q585 -292 624 -307T708 -322Q756 -322 782 -306T808 -260Q808 -221 770 -200T638 -178Q626 -178 622 -175T622 -159L695 10H825L780 -107Q856 -109 900 -133T963
-192T983 -263Q983 -314 950 -350T862 -406T744 -425ZM751 -20Q549 -20 402 74T176 338T96 735Q96 963 175 1126T401 1378T751 1466Q914 1466 1041 1401T1247 1222T1340 967H1034Q1020 1042 983 1100T886 1192T742 1226Q641 1226 568 1177T456 1019T417 731Q417
461 503 341T742 220Q826 220 886 258T983 360T1034 500H1340Q1327 397 1290 304T1185 137T1010 22T751 -20Z" />
<glyph unicode="&#xc8;" horiz-adv-x="1269" d="M162 0V1446H1155L1154 1200H455V849H1062V608H453V249L1165 248V0H162ZM552 1567L256 1858H557L763 1567H552Z" />
<glyph unicode="&#xc9;" horiz-adv-x="1269" d="M162 0V1446H1155L1154 1200H455V849H1062V608H453V249L1165 248V0H162ZM551 1567L757 1858H1058L761 1567H551Z" />
<glyph unicode="&#xca;" horiz-adv-x="1269" d="M162 0V1446H1155L1154 1200H455V849H1062V608H453V249L1165 248V0H162ZM296 1567L560 1826H762L1019 1567H791L659 1707L513 1567H296Z" />
<glyph unicode="&#xcb;" horiz-adv-x="1269" d="M162 0V1446H1155L1154 1200H455V849H1062V608H453V249L1165 248V0H162ZM755 1620L758 1858H1031L1029 1620H755ZM289 1620L292 1858H565L563 1620H289Z" />
<glyph unicode="&#xcc;" horiz-adv-x="615" d="M162 0V1446H453V0H162ZM201 1567L-95 1858H206L412 1567H201Z" />
<glyph unicode="&#xcd;" horiz-adv-x="615" d="M162 0V1446H453V0H162ZM199 1567L405 1858H706L409 1567H199Z" />
<glyph unicode="&#xce;" horiz-adv-x="615" d="M162 0V1446H453V0H162ZM-56 1567L208 1826H410L667 1567H439L307 1707L161 1567H-56Z" />
<glyph unicode="&#xcf;" horiz-adv-x="615" d="M162 0V1446H453V0H162ZM404 1620L407 1858H680L678 1620H404ZM-62 1620L-59 1858H214L212 1620H-62Z" />
<glyph unicode="&#xd0;" horiz-adv-x="1498" d="M70 612V825H804V612H70ZM219 0V1446Q231 1446 281 1446T400 1446T537 1446T652 1444Q915 1438 1080 1350T1324 1104T1402 730Q1402 505 1320 342T1070 89T642 0H219ZM514 236H648Q772 236 873 284T1035 441T1096
732Q1096 901 1043 1006T889 1161T652 1210H514V236Z" />
<glyph unicode="&#xd1;" horiz-adv-x="1564" d="M162 0V1446H451L1111 489V1446H1403V0H1140L453 995V0H162ZM487 1603L442 1756Q478 1793 522 1820T634 1847Q690 1847 740 1832T837 1802T929 1786Q982 1786 1023 1808T1096 1855L1132 1682Q1101 1657 1049 1635T930
1612Q874 1612 829 1626T739 1653T644 1667Q593 1667 560 1652T487 1603Z" />
<glyph unicode="&#xd2;" horiz-adv-x="1521" d="M763 -20Q558 -20 409 69T178 324T96 720Q96 951 178 1118T411 1375T763 1466Q964 1466 1113 1376T1343 1119T1425 720Q1425 491 1345 325T1115 70T763 -20ZM763 220Q869 220 946 270T1066 430T1108 716Q1108 897
1066 1009T946 1173T763 1226Q658 1226 580 1174T459 1009T416 716Q416 539 459 430T580 271T763 220ZM654 1567L358 1858H659L865 1567H654Z" />
<glyph unicode="&#xd3;" horiz-adv-x="1521" d="M763 -20Q558 -20 409 69T178 324T96 720Q96 951 178 1118T411 1375T763 1466Q964 1466 1113 1376T1343 1119T1425 720Q1425 491 1345 325T1115 70T763 -20ZM763 220Q869 220 946 270T1066 430T1108 716Q1108 897
1066 1009T946 1173T763 1226Q658 1226 580 1174T459 1009T416 716Q416 539 459 430T580 271T763 220ZM653 1567L859 1858H1160L863 1567H653Z" />
<glyph unicode="&#xd4;" horiz-adv-x="1521" d="M763 -20Q558 -20 409 69T178 324T96 720Q96 951 178 1118T411 1375T763 1466Q964 1466 1113 1376T1343 1119T1425 720Q1425 491 1345 325T1115 70T763 -20ZM763 220Q869 220 946 270T1066 430T1108 716Q1108 897
1066 1009T946 1173T763 1226Q658 1226 580 1174T459 1009T416 716Q416 539 459 430T580 271T763 220ZM398 1567L662 1826H864L1121 1567H893L761 1707L615 1567H398Z" />
<glyph unicode="&#xd5;" horiz-adv-x="1521" d="M763 -20Q558 -20 409 69T178 324T96 720Q96 951 178 1118T411 1375T763 1466Q964 1466 1113 1376T1343 1119T1425 720Q1425 491 1345 325T1115 70T763 -20ZM763 220Q869 220 946 270T1066 430T1108 716Q1108 897
1066 1009T946 1173T763 1226Q658 1226 580 1174T459 1009T416 716Q416 539 459 430T580 271T763 220ZM467 1603L422 1756Q458 1793 502 1820T614 1847Q670 1847 720 1832T817 1802T909 1786Q962 1786 1003 1808T1076 1855L1112 1682Q1081 1657 1029 1635T910 1612Q854
1612 809 1626T719 1653T624 1667Q573 1667 540 1652T467 1603Z" />
<glyph unicode="&#xd6;" horiz-adv-x="1521" d="M763 -20Q558 -20 409 69T178 324T96 720Q96 951 178 1118T411 1375T763 1466Q964 1466 1113 1376T1343 1119T1425 720Q1425 491 1345 325T1115 70T763 -20ZM763 220Q869 220 946 270T1066 430T1108 716Q1108 897
1066 1009T946 1173T763 1226Q658 1226 580 1174T459 1009T416 716Q416 539 459 430T580 271T763 220ZM857 1620L860 1858H1133L1131 1620H857ZM391 1620L394 1858H667L665 1620H391Z" />
<glyph unicode="&#xd7;" horiz-adv-x="1153" d="M267 269L118 420L885 1188L1036 1037L267 269ZM883 269L116 1036L265 1187L1034 420L883 269Z" />
<glyph unicode="&#xd8;" horiz-adv-x="1552" d="M172 -27L43 104L210 276Q158 363 131 474T104 719Q104 950 186 1117T417 1375T770 1466Q906 1466 1017 1425T1213 1305L1375 1471L1502 1342L1328 1160Q1379 1073 1406 962T1433 720Q1433 491 1352 325T1122 70T769
-20Q634 -20 523 20T330 133L172 -27ZM771 215Q905 215 979 301T1068 570Q1076 649 1074 729T1060 897L529 333Q606 215 771 215ZM476 538L1010 1104Q971 1171 912 1202T770 1234Q631 1234 555 1138T464 840Q458 765 461 690T476 538Z" />
<glyph unicode="&#xd9;" horiz-adv-x="1448" d="M740 -20Q529 -20 402 50T219 251T162 561V1446H459V539Q459 377 537 303T740 228Q823 228 887 260T987 361T1024 539V1446H1319V551Q1319 376 1262 248T1078 50T740 -20ZM633 1567L337 1858H638L844 1567H633Z" />
<glyph unicode="&#xda;" horiz-adv-x="1448" d="M740 -20Q529 -20 402 50T219 251T162 561V1446H459V539Q459 377 537 303T740 228Q823 228 887 260T987 361T1024 539V1446H1319V551Q1319 376 1262 248T1078 50T740 -20ZM632 1567L838 1858H1139L842 1567H632Z" />
<glyph unicode="&#xdb;" horiz-adv-x="1448" d="M740 -20Q529 -20 402 50T219 251T162 561V1446H459V539Q459 377 537 303T740 228Q823 228 887 260T987 361T1024 539V1446H1319V551Q1319 376 1262 248T1078 50T740 -20ZM377 1567L641 1826H843L1100 1567H872L740
1707L594 1567H377Z" />
<glyph unicode="&#xdc;" horiz-adv-x="1448" d="M740 -20Q529 -20 402 50T219 251T162 561V1446H459V539Q459 377 537 303T740 228Q823 228 887 260T987 361T1024 539V1446H1319V551Q1319 376 1262 248T1078 50T740 -20ZM836 1620L839 1858H1112L1110 1620H836ZM370
1620L373 1858H646L644 1620H370Z" />
<glyph unicode="&#xdd;" horiz-adv-x="1335" d="M521 0V609L19 1446H335L668 860L997 1446H1316L813 608V0H521ZM592 1568L798 1859H1099L802 1568H592Z" />
<glyph unicode="&#xde;" horiz-adv-x="1361" d="M162 0V1446H456V1169H750Q911 1169 1036 1122T1232 979T1303 737Q1303 594 1232 497T1037 350T754 300H456V0H162ZM456 541H741Q819 541 876 560T966 622T998 739Q998 808 966 850T876 910T737 929H456V541Z" />
<glyph unicode="&#xdf;" horiz-adv-x="1254" d="M754 -20Q672 -20 603 -2T486 47L573 227Q606 207 645 188T744 168Q818 168 866 203T915 306Q915 354 891 383T823 433T721 477Q664 501 615 534T536 616T505 736Q505 812 542 863T637 957Q670 984 700 1009T751
1064T772 1135Q772 1188 732 1222T615 1257Q521 1257 467 1200T413 1044V0H127L125 989Q127 1079 155 1161T243 1308T398 1409T629 1446Q764 1446 854 1410T990 1306T1036 1150Q1036 1078 1007 1027T920 936T776 860Q746 844 733 833T719 804Q719 785 732 776T777
756Q848 726 919 693T1048 613T1142 501T1177 337Q1177 220 1124 141T975 21T754 -20Z" />
<glyph unicode="&#xe0;" horiz-adv-x="1133" d="M432 -20Q334 -20 255 17T129 124T83 296Q83 466 210 554T611 646L741 648V710Q741 781 700 819T570 857Q507 856 450 827T370 726H127Q133 838 192 910T353 1018T584 1054Q742 1054 838 1015T977 902T1021 727V0H777L753
178Q700 66 621 23T432 -20ZM531 172Q570 172 607 186T675 225T722 281T741 345V498L636 496Q563 495 500 479T399 425T360 325Q360 253 409 213T531 172ZM479 1155L183 1446H484L690 1155H479Z" />
<glyph unicode="&#xe1;" horiz-adv-x="1133" d="M432 -20Q334 -20 255 17T129 124T83 296Q83 466 210 554T611 646L741 648V710Q741 781 700 819T570 857Q507 856 450 827T370 726H127Q133 838 192 910T353 1018T584 1054Q742 1054 838 1015T977 902T1021 727V0H777L753
178Q700 66 621 23T432 -20ZM531 172Q570 172 607 186T675 225T722 281T741 345V498L636 496Q563 495 500 479T399 425T360 325Q360 253 409 213T531 172ZM477 1155L683 1446H984L687 1155H477Z" />
<glyph unicode="&#xe2;" horiz-adv-x="1133" d="M432 -20Q334 -20 255 17T129 124T83 296Q83 466 210 554T611 646L741 648V710Q741 781 700 819T570 857Q507 856 450 827T370 726H127Q133 838 192 910T353 1018T584 1054Q742 1054 838 1015T977 902T1021 727V0H777L753
178Q700 66 621 23T432 -20ZM531 172Q570 172 607 186T675 225T722 281T741 345V498L636 496Q563 495 500 479T399 425T360 325Q360 253 409 213T531 172ZM222 1155L486 1414H688L945 1155H717L585 1295L439 1155H222Z" />
<glyph unicode="&#xe3;" horiz-adv-x="1133" d="M432 -20Q334 -20 255 17T129 124T83 296Q83 466 210 554T611 646L741 648V710Q741 781 700 819T570 857Q507 856 450 827T370 726H127Q133 838 192 910T353 1018T584 1054Q742 1054 838 1015T977 902T1021 727V0H777L753
178Q700 66 621 23T432 -20ZM531 172Q570 172 607 186T675 225T722 281T741 345V498L636 496Q563 495 500 479T399 425T360 325Q360 253 409 213T531 172ZM292 1191L247 1344Q283 1381 327 1408T439 1435Q495 1435 545 1420T642 1390T734 1374Q787 1374 828 1396T901
1443L937 1270Q906 1245 854 1223T735 1200Q679 1200 634 1214T544 1241T449 1255Q398 1255 365 1240T292 1191Z" />
<glyph unicode="&#xe4;" horiz-adv-x="1133" d="M432 -20Q334 -20 255 17T129 124T83 296Q83 466 210 554T611 646L741 648V710Q741 781 700 819T570 857Q507 856 450 827T370 726H127Q133 838 192 910T353 1018T584 1054Q742 1054 838 1015T977 902T1021 727V0H777L753
178Q700 66 621 23T432 -20ZM531 172Q570 172 607 186T675 225T722 281T741 345V498L636 496Q563 495 500 479T399 425T360 325Q360 253 409 213T531 172ZM682 1208L685 1446H958L956 1208H682ZM216 1208L219 1446H492L490 1208H216Z" />
<glyph unicode="&#xe5;" horiz-adv-x="1133" d="M432 -20Q334 -20 255 17T129 124T83 296Q83 466 210 554T611 646L741 648V710Q741 781 700 819T570 857Q507 856 450 827T370 726H127Q133 838 192 910T353 1018T584 1054Q742 1054 838 1015T977 902T1021 727V0H777L753
178Q700 66 621 23T432 -20ZM531 172Q570 172 607 186T675 225T722 281T741 345V498L636 496Q563 495 500 479T399 425T360 325Q360 253 409 213T531 172ZM587 1135Q496 1135 433 1199T370 1356Q370 1444 434 1505T587 1566Q647 1566 696 1538T775 1461T805 1352Q805
1261 742 1198T587 1135ZM585 1249Q627 1249 655 1280T684 1351Q684 1394 656 1422T585 1450Q544 1450 514 1422T483 1351Q483 1311 513 1280T585 1249Z" />
<glyph unicode="&#xe6;" horiz-adv-x="1827" d="M432 -20Q334 -20 255 17T129 124T83 296Q83 466 210 554T612 646L742 648V710Q742 783 697 820T570 857Q507 856 450 826T370 726H127Q133 833 192 906T353 1016T584 1054Q713 1054 802 1021T940 928Q998 988 1078
1021T1259 1054Q1417 1054 1524 988T1686 803T1741 529V450H1047Q1046 371 1072 313T1147 223T1267 191Q1342 191 1398 223T1477 328H1740Q1723 218 1653 140T1482 21T1274 -20Q1131 -20 1021 37T844 198Q818 130 763 81T625 6T432 -20ZM531 172Q593 172 639 200T712
272T740 360V498L636 496Q563 495 501 479T399 425T360 325Q360 253 409 213T531 172ZM1046 624H1468Q1468 686 1445 738T1376 820T1259 850Q1191 850 1144 818T1071 733T1046 624Z" />
<glyph unicode="&#xe7;" horiz-adv-x="1094" d="M565 -425Q503 -425 445 -413T335 -371L375 -273Q406 -292 446 -307T529 -322Q577 -322 603 -306T629 -260Q629 -221 591 -200T460 -178Q447 -178 443 -175T443 -159L517 10H646L602 -107Q677 -109 721 -133T785
-192T804 -263Q804 -314 771 -350T684 -406T565 -425ZM575 -20Q431 -20 318 44T141 227T76 513Q76 673 138 795T312 985T575 1054Q705 1054 799 1001T948 858T1011 657H768Q761 698 739 738T677 805T577 832Q475 832 412 754T348 515Q348 364 410 276T583 187Q642
187 681 216T743 285T771 361H1008Q1001 254 946 168T797 31T575 -20Z" />
<glyph unicode="&#xe8;" horiz-adv-x="1153" d="M600 -20Q446 -20 330 44T148 227T83 505Q83 660 142 784T314 981T585 1054Q743 1054 850 988T1012 803T1067 529V450H372Q372 371 398 313T473 223T593 191Q668 191 724 223T803 328H1066Q1048 218 978 140T808
21T600 -20ZM372 624H794Q794 686 771 738T701 820T584 850Q517 850 470 818T397 733T372 624ZM478 1155L182 1446H483L689 1155H478Z" />
<glyph unicode="&#xe9;" horiz-adv-x="1153" d="M600 -20Q446 -20 330 44T148 227T83 505Q83 660 142 784T314 981T585 1054Q743 1054 850 988T1012 803T1067 529V450H372Q372 371 398 313T473 223T593 191Q668 191 724 223T803 328H1066Q1048 218 978 140T808
21T600 -20ZM372 624H794Q794 686 771 738T701 820T584 850Q517 850 470 818T397 733T372 624ZM477 1155L683 1446H984L687 1155H477Z" />
<glyph unicode="&#xea;" horiz-adv-x="1153" d="M600 -20Q446 -20 330 44T148 227T83 505Q83 660 142 784T314 981T585 1054Q743 1054 850 988T1012 803T1067 529V450H372Q372 371 398 313T473 223T593 191Q668 191 724 223T803 328H1066Q1048 218 978 140T808
21T600 -20ZM372 624H794Q794 686 771 738T701 820T584 850Q517 850 470 818T397 733T372 624ZM222 1155L486 1414H688L945 1155H717L585 1295L439 1155H222Z" />
<glyph unicode="&#xeb;" horiz-adv-x="1153" d="M600 -20Q446 -20 330 44T148 227T83 505Q83 660 142 784T314 981T585 1054Q743 1054 850 988T1012 803T1067 529V450H372Q372 371 398 313T473 223T593 191Q668 191 724 223T803 328H1066Q1048 218 978 140T808
21T600 -20ZM372 624H794Q794 686 771 738T701 820T584 850Q517 850 470 818T397 733T372 624ZM681 1208L684 1446H957L955 1208H681ZM215 1208L218 1446H491L489 1208H215Z" />
<glyph unicode="&#xec;" horiz-adv-x="529" d="M125 0V1034H404V0H125ZM429 1155L210 1446H497L627 1157L429 1155Z" />
<glyph unicode="&#xed;" horiz-adv-x="529" d="M125 0V1034H404V0H125ZM358 1155L160 1157L290 1446H577L358 1155Z" />
<glyph unicode="&#xee;" horiz-adv-x="529" d="M125 0V1034H404V0H125ZM161 1155L425 1414H627L884 1155H656L524 1295L378 1155H161Z" />
<glyph unicode="&#xef;" horiz-adv-x="768" d="M236 0V1034H515V0H236ZM479 1460L482 1698H755L753 1460H479ZM13 1460L16 1698H289L287 1460H13Z" />
<glyph unicode="&#xf0;" horiz-adv-x="1151" d="M570 -20Q420 -20 309 48T137 234T76 499Q76 628 114 726T218 892T370 993T551 1027Q705 1027 800 945T913 708L728 856Q719 957 677 1049T575 1222T452 1368T337 1481H572Q655 1423 743 1334T906 1127T1028 863T1075
548Q1075 372 1017 245T846 49T570 -20ZM578 197Q653 197 700 238T769 351T791 511Q791 653 739 736T579 819Q467 819 414 733T361 511Q361 425 382 354T451 240T578 197ZM325 1104L287 1231L978 1436L1017 1309L325 1104Z" />
<glyph unicode="&#xf1;" horiz-adv-x="1186" d="M125 0V1034H412V888Q436 926 474 961T572 1020T712 1043Q807 1043 889 1006T1023 890T1074 682V0H782V646Q782 730 732 772T610 814Q562 814 518 797T445 746T417 662V0H125ZM310 1191L265 1344Q301 1381 345 1408T457
1435Q513 1435 563 1420T660 1390T752 1374Q805 1374 846 1396T919 1443L955 1270Q924 1245 872 1223T753 1200Q697 1200 652 1214T562 1241T467 1255Q416 1255 383 1240T310 1191Z" />
<glyph unicode="&#xf2;" horiz-adv-x="1151" d="M576 -20Q424 -20 312 45T138 229T76 511Q76 674 137 796T311 986T577 1054Q730 1054 842 988T1015 799T1076 511Q1076 355 1017 236T846 48T576 -20ZM577 197Q654 197 701 242T769 360T790 521Q790 603 771 676T705
794T577 839Q500 839 453 797T383 682T361 521Q361 440 381 366T448 244T577 197ZM468 1155L172 1446H473L679 1155H468Z" />
<glyph unicode="&#xf3;" horiz-adv-x="1151" d="M576 -20Q424 -20 312 45T138 229T76 511Q76 674 137 796T311 986T577 1054Q730 1054 842 988T1015 799T1076 511Q1076 355 1017 236T846 48T576 -20ZM577 197Q654 197 701 242T769 360T790 521Q790 603 771 676T705
794T577 839Q500 839 453 797T383 682T361 521Q361 440 381 366T448 244T577 197ZM467 1155L673 1446H974L677 1155H467Z" />
<glyph unicode="&#xf4;" horiz-adv-x="1151" d="M576 -20Q424 -20 312 45T138 229T76 511Q76 674 137 796T311 986T577 1054Q730 1054 842 988T1015 799T1076 511Q1076 355 1017 236T846 48T576 -20ZM577 197Q654 197 701 242T769 360T790 521Q790 603 771 676T705
794T577 839Q500 839 453 797T383 682T361 521Q361 440 381 366T448 244T577 197ZM212 1155L476 1414H678L935 1155H707L575 1295L429 1155H212Z" />
<glyph unicode="&#xf5;" horiz-adv-x="1151" d="M576 -20Q424 -20 312 45T138 229T76 511Q76 674 137 796T311 986T577 1054Q730 1054 842 988T1015 799T1076 511Q1076 355 1017 236T846 48T576 -20ZM577 197Q654 197 701 242T769 360T790 521Q790 603 771 676T705
794T577 839Q500 839 453 797T383 682T361 521Q361 440 381 366T448 244T577 197ZM282 1191L237 1344Q273 1381 317 1408T429 1435Q485 1435 535 1420T632 1390T724 1374Q777 1374 818 1396T891 1443L927 1270Q896 1245 844 1223T725 1200Q669 1200 624 1214T534
1241T439 1255Q388 1255 355 1240T282 1191Z" />
<glyph unicode="&#xf6;" horiz-adv-x="1151" d="M576 -20Q424 -20 312 45T138 229T76 511Q76 674 137 796T311 986T577 1054Q730 1054 842 988T1015 799T1076 511Q1076 355 1017 236T846 48T576 -20ZM577 197Q654 197 701 242T769 360T790 521Q790 603 771 676T705
794T577 839Q500 839 453 797T383 682T361 521Q361 440 381 366T448 244T577 197ZM671 1208L674 1446H947L945 1208H671ZM205 1208L208 1446H481L479 1208H205Z" />
<glyph unicode="&#xf7;" horiz-adv-x="1177" d="M116 621V834H1061V621H116ZM438 187V480H742V187H438ZM438 975V1268H742V975H438Z" />
<glyph unicode="&#xf8;" horiz-adv-x="1223" d="M147 -15L51 88L1064 1046L1159 944L147 -15ZM625 -20Q473 -20 361 45T187 229T125 511Q125 674 186 796T360 986T626 1054Q779 1054 891 988T1064 799T1125 511Q1125 355 1066 236T895 48T625 -20ZM626 197Q703
197 750 242T818 360T840 521Q840 603 821 676T754 794T626 839Q549 839 502 797T432 682T410 521Q410 440 430 366T497 244T626 197Z" />
<glyph unicode="&#xf9;" horiz-adv-x="1190" d="M506 -20Q434 -20 365 2T238 67T147 173T112 319V1034H404V356Q404 284 451 238T589 192Q675 192 725 236T776 361V1034H1065V0H845L811 205Q793 114 744 66T631 -1T506 -20ZM483 1155L187 1446H488L694 1155H483Z" />
<glyph unicode="&#xfa;" horiz-adv-x="1190" d="M506 -20Q434 -20 365 2T238 67T147 173T112 319V1034H404V356Q404 284 451 238T589 192Q675 192 725 236T776 361V1034H1065V0H845L811 205Q793 114 744 66T631 -1T506 -20ZM482 1155L688 1446H989L692 1155H482Z" />
<glyph unicode="&#xfb;" horiz-adv-x="1190" d="M506 -20Q434 -20 365 2T238 67T147 173T112 319V1034H404V356Q404 284 451 238T589 192Q675 192 725 236T776 361V1034H1065V0H845L811 205Q793 114 744 66T631 -1T506 -20ZM227 1155L491 1414H693L950 1155H722L590
1295L444 1155H227Z" />
<glyph unicode="&#xfc;" horiz-adv-x="1190" d="M506 -20Q434 -20 365 2T238 67T147 173T112 319V1034H404V356Q404 284 451 238T589 192Q675 192 725 236T776 361V1034H1065V0H845L811 205Q793 114 744 66T631 -1T506 -20ZM686 1208L689 1446H962L960 1208H686ZM220
1208L223 1446H496L494 1208H220Z" />
<glyph unicode="&#xfd;" horiz-adv-x="1126" d="M287 -330Q181 -330 137 -313T93 -295V-109L196 -113Q263 -117 304 -107T366 -79T396 -44T410 -14L429 43L27 1034H316L564 360L814 1034H1100L681 -6Q627 -138 567 -208T437 -304T287 -330ZM454 1155L660 1446H961L664
1155H454Z" />
<glyph unicode="&#xfe;" horiz-adv-x="1208" d="M125 -322V1446H417V903Q450 940 492 974T592 1031T731 1054Q844 1054 935 997T1079 823T1133 525Q1133 338 1078 218T929 39T714 -20Q637 -20 573 4T452 79Q431 98 424 97T417 68V-322H125ZM608 165Q677 165 728
201T807 318T836 531Q836 657 808 730T729 836T612 868Q556 868 512 845T442 785T417 709V265Q456 221 502 193T608 165Z" />
<glyph unicode="&#xff;" horiz-adv-x="1126" d="M287 -330Q181 -330 137 -313T93 -295V-109L196 -113Q263 -117 304 -107T366 -79T396 -44T410 -14L429 43L27 1034H316L564 360L814 1034H1100L681 -6Q627 -138 567 -208T437 -304T287 -330ZM659 1208L662 1446H935L933
1208H659ZM193 1208L196 1446H469L467 1208H193Z" />
<glyph unicode="&#x2013;" horiz-adv-x="1185" d="M120 390V603L1064 604V391L120 390Z" />
<glyph unicode="&#x2014;" horiz-adv-x="2297" d="M360 390V603L1937 604V391L360 390Z" />
<glyph unicode="&#x2018;" horiz-adv-x="526" d="M77 944V1192L278 1507H386L270 1234L372 1225V944H77Z" />
<glyph unicode="&#x2019;" horiz-adv-x="523" d="M100 884L216 1156L114 1166V1446H409V1199L208 884H100Z" />
<glyph unicode="&#x201a;" horiz-adv-x="554" d="M94 -277L209 -5L108 4V287H403V38L202 -277H94Z" />
<glyph unicode="&#x201c;" horiz-adv-x="959" d="M77 884V1132L278 1446H386L270 1175L372 1165V884H77ZM510 884V1132L711 1446H819L703 1175L805 1165V884H510Z" />
<glyph unicode="&#x201d;" horiz-adv-x="956" d="M531 884L649 1156L546 1166V1446H842V1199L641 884H531ZM100 884L216 1156L114 1166V1446H409V1199L208 884H100Z" />
<glyph unicode="&#x201e;" horiz-adv-x="997" d="M537 -277L652 -5L551 4V287H846V38L645 -277H537ZM94 -277L209 -5L108 4V287H403V38L202 -277H94Z" />
<glyph unicode="&#x2022;" horiz-adv-x="706" d="M342 484Q273 484 216 518T126 609T92 736Q92 805 125 861T216 952T342 986Q411 986 468 952T559 862T593 736Q593 667 559 610T468 518T342 484Z" />
<glyph unicode="&#x2039;" horiz-adv-x="618" d="M338 129L101 502L337 891H493L330 502L492 129H338Z" />
<glyph unicode="&#x203a;" horiz-adv-x="617" d="M126 129L287 502L124 891H280L516 502L279 129H126Z" />
</font>
</defs>
</svg>
